<?xml version="1.0" encoding="utf-8"?>
<!-- Generator: Adobe Illustrator 24.2.1, SVG Export Plug-In . SVG Version: 6.00 Build 0)  -->
<svg version="1.1" id="Layer_1" xmlns="http://www.w3.org/2000/svg" xmlns:xlink="http://www.w3.org/1999/xlink" x="0px" y="0px"
	 viewBox="0 0 280 30.4" style="enable-background:new 0 0 280 30.4;" xml:space="preserve">
<style type="text/css">
	.st0{fill:#ED1C24;}
	.st1{fill:#707073;}
</style>
<polygon points="67.6,15.9 73.1,15.9 73.1,14.4 67.6,14.4 67.6,11.1 75.8,11.1 75.8,9.6 65.9,9.6 65.9,21.1 76.1,21.1 76.1,19.6 
	67.6,19.6 "/>
<path d="M111.2,16.5c0.1,1.8-1.2,3.3-3,3.4c-0.1,0-0.2,0-0.4,0c-1.7,0.1-3.1-1.3-3.2-3c0-0.1,0-0.3,0-0.4V9.7H103v6.9
	c-0.1,2.5,1.8,4.7,4.4,4.8c0.1,0,0.3,0,0.4,0c3.8,0,5-2.6,5-4.8V9.7h-1.6L111.2,16.5z"/>
<rect x="122.1" y="9.6" width="1.6" height="11.4"/>
<polygon points="143.3,18.6 135.2,9.6 133.6,9.6 133.6,21.1 135.2,21.1 135.2,12.1 143.3,21.1 144.9,21.1 144.9,9.6 143.3,9.6 "/>
<rect x="154.9" y="9.6" width="1.6" height="11.4"/>
<polygon points="172.5,14.9 177.3,9.6 175.2,9.6 171.5,13.8 167.8,9.6 165.6,9.6 170.2,14.9 164.5,21.1 166.6,21.1 171.3,16 
	175.8,21.1 178.1,21.1 "/>
<path d="M88.6,9.2c-3.3,0-6,2.7-6,6c0,0.1,0,0.1,0,0.2l0,0c-0.1,3.3,2.5,6,5.7,6.1c0.1,0,0.2,0,0.4,0c0.9,0,1.8-0.2,2.7-0.6l0.9,1.1
	h1.9L92.6,20c1.4-1.2,2.3-2.9,2.2-4.8l0,0c0.1-3.3-2.5-6-5.8-6.1C88.9,9.2,88.8,9.2,88.6,9.2 M93,15.4c0.1,1.4-0.5,2.7-1.5,3.6
	l-0.9-1h-1.9l1.6,1.8c-0.5,0.2-1.1,0.3-1.6,0.3c-2.4,0-4.4-2-4.4-4.4c0-0.1,0-0.1,0-0.2v0c-0.2-2.4,1.6-4.5,4-4.7c0.1,0,0.2,0,0.2,0
	c2.5,0,4.4,2,4.4,4.5C93,15.2,93,15.3,93,15.4L93,15.4z"/>
<polygon class="st0" points="43.5,7.1 43.5,20.6 40.4,21.7 40.4,6 31.1,2.7 31.1,25 28,26.1 28,1.6 23.3,0 18.6,1.6 18.6,26.1 
	15.5,25 15.5,2.7 6.2,6 6.2,21.7 3.1,20.6 3.1,7.1 0,8.1 0,22.9 9.3,26.1 9.3,8.2 12.4,7.1 12.4,27.2 21.7,30.4 21.7,3.8 23.3,3.3 
	24.9,3.8 24.9,30.4 34.2,27.2 34.2,7.1 37.3,8.2 37.3,26.1 46.6,22.9 46.6,8.1 "/>
<path class="st0" d="M52.5,21.8c1.5,0,2.8-1.3,2.8-2.8l0,0c0-1.5-1.3-2.8-2.8-2.8s-2.8,1.3-2.8,2.8l0,0C49.7,20.6,51,21.8,52.5,21.8
	C52.5,21.8,52.5,21.8,52.5,21.8 M52.5,21.5c-1.4,0-2.5-1.1-2.5-2.5c0,0,0,0,0,0l0,0c0-1.4,1.1-2.5,2.5-2.5s2.5,1.1,2.5,2.5l0,0
	C55.1,20.4,54,21.5,52.5,21.5C52.6,21.5,52.6,21.5,52.5,21.5 M51.4,20.4h0.7v-0.9h0.4l0.6,0.9H54l-0.7-1c0.4-0.1,0.7-0.5,0.6-0.9
	c0-0.7-0.5-1-1.2-1h-1.4L51.4,20.4z M52.1,18.9v-0.8h0.6c0.3,0,0.5,0.1,0.5,0.4s-0.2,0.4-0.5,0.4H52.1z"/>
<line class="st1" x1="197.7" y1="0.7" x2="197.7" y2="30"/>
<rect x="197.5" class="st1" width="0.5" height="30.4"/>
<g>
	<path class="st1" d="M217,9.7h2.2l3.7,5.4l3.6-5.4h2.2v11.4h-2.1v-8.1l-3.8,5.4h-0.1l-3.7-5.3v8.1H217V9.7z"/>
	<path class="st1" d="M233,9.7h8.9v1.8h-6.7v3h6v1.8h-6v3h6.8v1.8H233L233,9.7z"/>
	<path class="st1" d="M249,11.6h-3.8V9.7h9.7v1.9h-3.8v9.5H249V11.6z"/>
	<path class="st1" d="M260.9,9.6h2l5.2,11.4h-2.2l-1.2-2.7H259l-1.2,2.7h-2.1L260.9,9.6z M263.9,16.6l-2.1-4.5l-2,4.5H263.9z"/>
	<path class="st1" d="M271.6,9.7h2.1v9.5h6.3v1.8h-8.4L271.6,9.7z"/>
</g>
</svg>
